<svg width="512" height="512" viewBox="0 0 512 512" xmlns="http://www.w3.org/2000/svg" role="img" aria-label="Тайкун-Парк">
  <defs>
    <linearGradient id="bg" x1="0" y1="0" x2="1" y2="1">
      <stop offset="0" stop-color="#7c3aed"/>
      <stop offset="0.5" stop-color="#db2777"/>
      <stop offset="1" stop-color="#f59e0b"/>
    </linearGradient>
    <linearGradient id="bar" x1="0" y1="1" x2="0" y2="0">
      <stop offset="0" stop-color="#ffffff" stop-opacity="0.82"/>
      <stop offset="1" stop-color="#ffffff"/>
    </linearGradient>
    <linearGradient id="sheen" x1="0" y1="0" x2="0" y2="1">
      <stop offset="0" stop-color="#ffffff" stop-opacity="0.28"/>
      <stop offset="0.45" stop-color="#ffffff" stop-opacity="0"/>
    </linearGradient>
  </defs>
  <rect width="512" height="512" rx="116" fill="url(#bg)"/>
  <rect width="512" height="512" rx="116" fill="url(#sheen)"/>
  <g>
    <rect x="150" y="300" width="58" height="96" rx="24" fill="url(#bar)" opacity="0.9"/>
    <rect x="227" y="238" width="58" height="158" rx="24" fill="url(#bar)" opacity="0.96"/>
    <rect x="304" y="172" width="58" height="224" rx="24" fill="url(#bar)"/>
  </g>
  <g transform="translate(333,128)" fill="#fff">
    <path d="M0 -30 C6 -10 10 -6 30 0 C10 6 6 10 0 30 C-6 10 -10 6 -30 0 C-10 -6 -6 -10 0 -30 Z"/>
  </g>
</svg>
